<?xml version="1.0" standalone="no"?>
<!DOCTYPE svg PUBLIC "-//W3C//DTD SVG 20010904//EN"
 "http://www.w3.org/TR/2001/REC-SVG-20010904/DTD/svg10.dtd">
<svg version="1.0" xmlns="http://www.w3.org/2000/svg"
 width="1024.000000pt" height="1024.000000pt" viewBox="0 0 1024.000000 1024.000000"
 preserveAspectRatio="xMidYMid meet">
<metadata>
Created by potrace 1.14, written by Peter Selinger 2001-2017
</metadata>
<g transform="translate(0.000000,1024.000000) scale(0.100000,-0.100000)"
fill="#000000" stroke="none">
<path d="M8351 8414 c-30 -8 -76 -26 -104 -41 -45 -25 -675 -536 -827 -672
-36 -32 -83 -64 -105 -70 -57 -19 -112 -59 -138 -101 -13 -21 -108 -105 -232
-205 -115 -93 -262 -212 -325 -265 -138 -114 -177 -143 -183 -133 -4 8 -205
626 -269 828 -51 161 -109 265 -206 367 -123 129 -258 212 -418 258 -118 34
-278 41 -864 37 -640 -5 -638 -5 -835 -101 -133 -66 -230 -145 -316 -260 -72
-95 -114 -181 -170 -355 -72 -220 -279 -817 -474 -1366 -73 -207 -159 -450
-229 -647 -30 -86 -90 -253 -132 -370 -94 -263 -155 -436 -229 -643 -31 -88
-77 -216 -102 -285 -25 -69 -62 -174 -83 -235 -21 -60 -84 -238 -140 -395
-273 -764 -449 -1288 -475 -1408 -20 -96 -25 -643 -6 -666 13 -15 91 -16 865
-14 l851 3 79 38 c155 74 252 205 315 427 16 58 65 227 109 375 44 149 92 314
107 368 l28 97 917 0 c722 0 920 -3 927 -13 6 -6 56 -167 112 -357 200 -675
202 -681 311 -791 47 -48 87 -77 145 -105 l80 -39 807 -3 c743 -2 807 -1 823
14 15 15 16 47 13 323 -4 294 -5 310 -31 401 -22 80 -641 1941 -922 2773 -48
142 -85 260 -82 263 2 3 54 18 115 34 161 42 392 164 520 273 121 104 348 293
389 325 23 18 69 42 102 53 61 21 145 84 155 117 3 10 41 44 83 77 108 82 326
254 819 647 67 53 137 116 157 140 140 171 154 422 33 603 -40 59 -402 483
-489 572 -33 34 -81 73 -107 87 -97 53 -257 70 -369 40z m197 -379 c16 -20 20
-30 12 -43 -17 -29 -34 -47 -67 -70 -42 -29 -204 -163 -344 -282 -35 -30 -70
-59 -78 -65 -7 -5 -28 -24 -46 -40 -18 -17 -44 -36 -58 -44 -15 -8 -50 -35
-79 -60 -29 -26 -70 -59 -90 -74 l-36 -27 -41 49 c-23 27 -41 54 -41 59 0 6
17 25 38 41 20 17 179 148 352 292 173 143 331 269 350 280 46 25 97 18 128
-16z m-4387 -271 c26 -23 49 -74 49 -108 0 -13 -20 -77 -45 -141 -25 -65 -66
-177 -91 -249 -56 -159 -112 -318 -224 -636 -56 -159 -193 -549 -245 -700 -18
-52 -74 -210 -125 -350 -50 -140 -107 -298 -125 -350 -18 -52 -75 -210 -125
-350 -111 -310 -192 -538 -260 -730 -28 -80 -84 -237 -125 -350 -86 -238 -116
-324 -294 -825 -72 -204 -131 -376 -131 -383 0 -17 21 -15 46 6 22 18 94 213
94 255 0 13 9 32 20 42 11 10 20 25 20 32 0 17 50 163 60 178 4 6 11 28 15 50
4 22 10 44 13 50 4 5 37 100 75 210 119 347 135 391 160 446 14 30 28 70 32
89 4 19 19 62 33 95 32 76 69 177 87 235 7 25 32 97 55 160 22 63 55 158 72
210 17 52 41 117 54 144 13 28 24 56 24 64 0 7 13 46 29 85 16 40 40 106 53
147 14 41 39 111 55 155 17 44 40 109 53 145 12 36 33 94 47 130 14 36 29 83
35 105 6 22 14 49 19 60 5 11 17 45 28 75 32 93 51 144 61 165 5 11 31 88 59
170 28 83 60 175 71 205 45 120 93 259 115 330 30 98 56 163 71 175 6 6 14 28
17 51 2 23 21 83 41 134 20 51 41 115 47 144 5 28 18 69 28 91 10 22 26 65 36
95 27 86 81 121 133 84 29 -20 30 -80 2 -131 -11 -21 -20 -45 -20 -53 0 -29
-43 -145 -57 -153 -7 -4 -13 -14 -13 -21 0 -21 -40 -140 -50 -150 -6 -6 -10
-20 -10 -33 0 -13 -9 -40 -20 -60 -11 -21 -20 -54 -20 -73 0 -19 -6 -45 -13
-56 -44 -76 -57 -107 -57 -138 0 -19 -6 -41 -12 -48 -14 -15 -32 -58 -55 -133
-8 -27 -24 -73 -34 -100 -10 -28 -19 -58 -19 -67 0 -9 -11 -40 -25 -70 -14
-29 -25 -59 -25 -66 0 -8 -6 -28 -13 -45 -18 -43 -37 -95 -48 -137 -6 -19 -19
-54 -30 -77 -10 -23 -23 -61 -28 -83 -5 -23 -16 -49 -24 -58 -8 -9 -18 -37
-22 -62 -4 -25 -13 -52 -21 -60 -7 -9 -18 -37 -24 -64 -6 -26 -17 -64 -25 -83
-8 -20 -15 -44 -15 -54 0 -10 -11 -35 -25 -55 -14 -21 -32 -63 -41 -93 -22
-78 -59 -191 -85 -256 -4 -11 -15 -47 -24 -80 -10 -33 -28 -83 -41 -111 -13
-28 -24 -57 -24 -65 0 -8 -7 -23 -15 -33 -8 -11 -15 -28 -15 -39 0 -35 -51
-172 -71 -189 -12 -10 -19 -29 -19 -53 0 -19 -9 -48 -19 -63 -11 -15 -22 -48
-26 -74 -3 -26 -10 -50 -15 -53 -5 -3 -7 -12 -4 -19 3 -8 -3 -20 -14 -27 -10
-8 -22 -27 -25 -44 -14 -73 -36 -143 -55 -175 -12 -19 -28 -60 -36 -90 -14
-56 -28 -93 -45 -120 -5 -8 -25 -67 -45 -130 -38 -124 -81 -253 -96 -285 -13
-27 -38 -99 -56 -160 -8 -27 -21 -61 -28 -75 -16 -30 -43 -120 -51 -172 -3
-21 -10 -38 -16 -38 -5 0 -11 -6 -13 -12 -2 -7 -16 -51 -32 -99 l-27 -85 44
-41 c43 -41 44 -43 44 -106 0 -101 -21 -117 -223 -173 -200 -56 -295 -49 -360
25 -23 26 -42 80 -42 116 0 11 21 79 46 150 25 72 53 159 63 195 10 36 34 103
54 150 19 47 43 114 52 150 9 36 23 75 30 87 8 12 22 52 31 90 10 37 32 99 51
138 18 38 33 79 33 90 0 11 12 47 26 80 24 56 80 213 126 350 11 33 33 92 48
130 16 39 36 100 45 135 9 36 25 80 36 99 11 18 29 68 41 110 11 42 31 97 43
122 13 25 31 74 40 110 9 35 20 69 25 74 4 6 20 48 35 95 15 47 38 110 51 140
22 51 43 109 128 360 18 52 40 109 49 125 8 17 23 60 32 95 9 36 29 97 44 135
55 135 93 241 115 320 12 44 29 94 38 110 9 17 26 64 38 105 12 41 33 99 46
128 14 30 34 88 45 130 12 43 28 91 37 107 8 17 25 67 38 111 12 45 28 92 35
105 15 28 96 257 111 314 6 22 22 67 36 100 30 73 107 288 132 370 36 121 79
197 124 216 33 14 113 4 137 -17z m1209 -23 c158 -40 266 -134 316 -274 9 -23
31 -94 49 -157 47 -164 150 -507 187 -623 28 -90 29 -103 18 -140 -25 -85
-106 -126 -177 -90 -53 26 -70 55 -102 178 -16 61 -36 130 -44 155 -8 25 -33
110 -57 190 -138 474 -127 451 -234 492 -50 19 -80 23 -166 23 -117 0 -176
-13 -235 -53 -60 -41 -81 -93 -115 -294 -34 -200 -49 -247 -92 -283 -23 -20
-41 -25 -81 -25 -117 0 -174 91 -132 210 8 24 27 106 41 184 33 177 76 283
150 365 52 57 143 114 226 140 107 35 319 35 448 2z m2311 -587 c319 -363 438
-505 433 -517 -5 -12 -142 -118 -161 -124 -5 -2 -25 16 -44 39 -18 24 -70 84
-114 133 -44 50 -134 151 -200 225 -66 74 -148 165 -182 203 -35 37 -63 74
-63 82 0 8 33 40 73 72 39 31 74 61 75 65 2 4 7 8 11 8 4 0 81 -84 172 -186z
m-418 -140 c29 -31 53 -60 55 -63 1 -4 -33 -37 -75 -74 -43 -36 -86 -73 -95
-81 -10 -9 -58 -45 -107 -80 l-89 -65 -40 43 c-63 68 -69 84 -40 110 66 59
164 143 188 161 15 11 51 39 80 63 28 23 56 42 62 42 5 0 33 -25 61 -56z
m-501 -416 c25 -29 70 -81 99 -115 214 -245 409 -472 409 -477 0 -6 -132 -115
-168 -138 -15 -9 -184 -55 -377 -103 -505 -124 -557 -136 -563 -130 -3 3 74
190 171 417 97 227 180 424 185 438 13 33 161 160 187 160 7 0 32 -24 57 -52z
m1011 -216 c-15 -12 -77 -61 -138 -108 -60 -47 -117 -91 -125 -97 -8 -7 -31
-25 -51 -40 l-36 -27 -46 58 c-26 31 -47 59 -46 62 0 5 27 27 154 125 43 33
108 84 144 113 l66 53 53 -58 53 -58 -28 -23z m-2903 -622 c193 -580 390
-1178 390 -1184 0 -3 -218 -7 -485 -8 -288 -2 -485 1 -485 6 0 10 451 1374
470 1421 l12 30 20 -45 c11 -25 46 -124 78 -220z m1550 -557 c27 -72 51 -136
54 -142 13 -21 139 -390 497 -1462 285 -856 369 -1118 369 -1155 0 -63 -33
-123 -80 -146 -22 -11 -58 -18 -95 -18 -62 0 -272 46 -336 72 -113 48 -114
195 -1 249 l46 23 80 -21 c45 -12 82 -20 83 -19 2 1 -72 223 -163 492 -91 269
-173 516 -183 549 -10 33 -83 249 -161 480 -132 390 -171 508 -329 990 -33 99
-62 187 -66 197 -6 14 4 17 62 23 37 4 84 11 103 15 68 16 69 16 120 -127z
m-247 -221 c10 -10 24 -43 33 -73 9 -30 20 -58 24 -64 5 -5 16 -39 25 -75 9
-36 20 -69 24 -75 4 -5 16 -41 26 -80 10 -38 26 -86 35 -105 10 -19 22 -51 28
-70 48 -160 97 -306 104 -308 4 -2 8 -10 8 -18 0 -8 12 -47 26 -87 14 -39 37
-112 50 -160 13 -48 34 -111 47 -140 13 -29 29 -74 36 -102 6 -27 20 -70 31
-95 10 -25 28 -79 40 -120 31 -108 60 -200 75 -235 43 -102 57 -160 50 -204
-3 -25 -8 -57 -9 -71 -2 -20 -8 -25 -32 -25 -25 0 -29 5 -35 35 -4 19 -14 50
-24 68 -9 18 -14 39 -12 47 3 7 -1 19 -8 25 -8 7 -18 28 -21 48 -4 20 -15 50
-26 67 -10 16 -18 41 -18 55 0 14 -7 33 -15 43 -7 11 -17 36 -20 58 -4 21 -10
41 -15 44 -5 3 -11 24 -15 48 -3 23 -15 60 -25 82 -20 43 -60 168 -60 188 0 6
-11 34 -25 61 -14 27 -25 57 -25 66 0 9 -4 20 -8 25 -12 14 -34 96 -28 102 3
3 -1 15 -9 27 -8 11 -15 27 -15 34 0 8 -11 37 -25 64 -14 27 -27 64 -29 81 -5
31 -46 149 -80 231 -9 21 -14 42 -11 46 3 5 -3 28 -14 52 -10 24 -27 63 -37
88 -10 25 -26 64 -36 87 -10 23 -18 50 -18 61 0 10 -9 38 -21 62 -19 38 -38
98 -56 168 -13 51 73 85 110 44z m-217 -1127 c42 -22 64 -64 64 -120 0 -54
-21 -95 -61 -119 -25 -15 -130 -16 -1224 -17 -1337 0 -1231 -6 -1274 71 -41
73 -20 141 55 182 l42 23 1183 -2 c1068 -2 1187 -4 1215 -18z"/>
</g>
</svg>
